<?xml version="1.0" standalone="no"?>
<!DOCTYPE svg PUBLIC "-//W3C//DTD SVG 20010904//EN"
 "http://www.w3.org/TR/2001/REC-SVG-20010904/DTD/svg10.dtd">
<svg version="1.0" xmlns="http://www.w3.org/2000/svg"
 width="1024.000000pt" height="1024.000000pt" viewBox="0 0 1024.000000 1024.000000"
 preserveAspectRatio="xMidYMid meet">
<metadata>
Created by potrace 1.11, written by Peter Selinger 2001-2013
</metadata>
<g transform="translate(0.000000,1024.000000) scale(0.100000,-0.100000)"
fill="#000000" stroke="none">
<path d="M1095 7639 c-94 -12 -172 -36 -195 -59 -20 -20 -20 -50 -20 -2451 0
-1653 3 -2436 10 -2450 16 -28 76 -55 163 -73 130 -27 467 -40 705 -27 281 15
396 37 441 84 l21 23 2 1132 3 1132 600 -1122 c330 -617 608 -1131 618 -1144
45 -58 209 -83 597 -91 495 -10 734 23 794 109 14 20 16 261 16 2425 l0 2403
-21 21 c-52 52 -164 75 -446 91 -164 9 -258 9 -420 0 -285 -17 -390 -39 -440
-94 l-23 -24 -2 -1137 -3 -1137 -574 1108 c-438 843 -584 1116 -612 1144 -67
64 -205 99 -523 133 -159 16 -571 19 -691 4z"/>
<path d="M6278 7634 c-85 -45 -136 -250 -145 -575 -10 -350 36 -609 123 -696
l32 -33 451 0 451 0 0 -1826 0 -1826 28 -28 c58 -57 231 -87 567 -96 437 -13
786 32 825 107 6 11 10 696 10 1843 l0 1826 439 0 439 0 32 26 c86 73 133 296
133 634 0 102 -5 230 -12 285 -24 190 -79 331 -141 362 -20 10 -366 13 -1615
12 -1382 0 -1594 -2 -1617 -15z"/>
</g>
</svg>
